<svg xmlns="http://www.w3.org/2000/svg" xmlns:xlink="http://www.w3.org/1999/xlink" width="500" zoomAndPan="magnify" viewBox="0 0 375 374.999991" height="500" preserveAspectRatio="xMidYMid meet" version="1.0"><defs><g/><clipPath id="cb6e99ffd5"><path d="M 70.625 152.101562 L 135.875 152.101562 L 135.875 227.101562 L 70.625 227.101562 Z M 70.625 152.101562 " clip-rule="nonzero"/></clipPath></defs><rect x="-37.5" width="450" fill="#ffffff" y="-37.499999" height="449.999989" fill-opacity="1"/><rect x="-37.5" width="450" fill="#ffffff" y="-37.499999" height="449.999989" fill-opacity="1"/><rect x="-37.5" width="450" fill="#ffffff" y="-37.499999" height="449.999989" fill-opacity="1"/><g clip-path="url(#cb6e99ffd5)"><path fill="#ff5757" d="M 75.917969 202.542969 C 81.742188 211.46875 91.820312 217.378906 103.25 217.378906 C 121.238281 217.378906 135.875 202.742188 135.875 184.753906 C 135.875 166.761719 121.238281 152.125 103.25 152.125 C 85.261719 152.125 70.625 166.761719 70.625 184.753906 L 70.625 227.078125 L 75.917969 227.078125 Z M 111.1875 184.753906 C 111.1875 180.375 114.746094 176.816406 119.121094 176.816406 C 123.5 176.816406 127.058594 180.375 127.058594 184.753906 C 127.058594 189.128906 123.5 192.6875 119.121094 192.6875 C 114.746094 192.6875 111.1875 189.128906 111.1875 184.753906 Z M 111.1875 200.625 C 111.1875 205 107.625 208.558594 103.25 208.558594 C 98.875 208.558594 95.316406 205 95.316406 200.625 C 95.316406 196.25 98.875 192.6875 103.25 192.6875 C 107.625 192.6875 111.1875 196.25 111.1875 200.625 Z M 103.25 176.816406 C 98.875 176.816406 95.316406 173.257812 95.316406 168.878906 C 95.316406 164.503906 98.875 160.945312 103.25 160.945312 C 107.625 160.945312 111.1875 164.503906 111.1875 168.878906 C 111.1875 173.257812 107.625 176.816406 103.25 176.816406 Z M 95.316406 184.753906 C 95.316406 189.128906 91.753906 192.6875 87.378906 192.6875 C 83.003906 192.6875 79.441406 189.128906 79.441406 184.753906 C 79.441406 180.375 83.003906 176.816406 87.378906 176.816406 C 91.753906 176.816406 95.316406 180.375 95.316406 184.753906 Z M 95.316406 184.753906 " fill-opacity="1" fill-rule="nonzero"/></g><g fill="#ffde59" fill-opacity="1"><g transform="translate(141.888144, 183.749988)"><g><path d="M 4.054688 0.117188 L 4.835938 0 L 6.355469 0.078125 L 7.214844 -0.0390625 L 8.460938 0.0390625 L 9.554688 -0.429688 L 10.019531 -1.128906 L 9.902344 -5.226562 L 10.019531 -6.433594 L 9.980469 -7.253906 L 10.058594 -8.65625 L 9.980469 -9.515625 L 9.980469 -11.035156 L 10.332031 -11.386719 L 10.722656 -11.230469 L 11.347656 -10.722656 L 11.816406 -10.136719 L 13.414062 -8.539062 L 13.921875 -7.914062 L 14.972656 -6.902344 L 15.792969 -6.316406 L 16.648438 -6.277344 L 17.429688 -6.863281 L 17.976562 -7.449219 L 18.445312 -7.914062 L 19.535156 -9.203125 L 20.082031 -9.59375 L 21.679688 -11.230469 L 22.1875 -11.464844 L 22.5 -10.878906 L 22.421875 -8.734375 L 22.539062 -7.175781 L 22.460938 -5.652344 L 22.539062 -4.210938 L 22.460938 -3.507812 L 22.539062 -1.753906 L 22.539062 -1.167969 L 22.847656 -0.273438 L 23.667969 -0.0390625 L 28.386719 0.117188 L 29.207031 -0.3125 L 29.671875 -1.441406 L 29.554688 -3.46875 L 29.632812 -4.25 L 29.554688 -15.949219 L 29.632812 -16.804688 L 29.59375 -20.667969 L 29.632812 -21.40625 L 29.554688 -23.082031 L 29.59375 -23.746094 L 29.554688 -25.34375 L 29.632812 -26.085938 L 29.167969 -26.90625 L 28.347656 -27.332031 L 27.214844 -26.984375 L 26.398438 -26.476562 L 24.761719 -24.761719 L 24.253906 -24.136719 L 23.785156 -23.707031 L 23.238281 -23.003906 L 19.808594 -19.496094 L 19.300781 -18.832031 L 16.921875 -16.414062 L 16.222656 -15.949219 L 15.402344 -16.261719 L 14.933594 -16.921875 L 14.386719 -17.46875 L 13.6875 -18.367188 L 12.828125 -19.144531 L 9.28125 -23.082031 L 8.734375 -23.550781 L 7.71875 -24.761719 L 7.097656 -25.304688 L 6.082031 -26.359375 L 5.1875 -27.023438 L 4.09375 -27.332031 L 3.238281 -26.945312 L 2.808594 -26.125 L 2.925781 -23.746094 L 2.808594 -22.226562 L 2.886719 -21.523438 L 2.847656 -15.285156 L 2.925781 -14.503906 L 2.808594 -10.566406 L 2.886719 -9.824219 L 2.847656 -1.207031 L 3.273438 -0.390625 Z M 4.054688 0.117188 "/></g></g></g><g fill="#ffde59" fill-opacity="1"><g transform="translate(173.5073, 183.749988)"><g><path d="M 14.582031 0.46875 L 16.765625 0.429688 L 19.105469 0.117188 L 22.03125 -0.859375 L 23.316406 -1.558594 L 23.902344 -2.027344 L 24.644531 -2.378906 L 25.734375 -3.3125 L 26.242188 -4.015625 L 26.789062 -4.5625 L 28.503906 -7.175781 L 29.089844 -8.65625 L 29.398438 -10.136719 L 29.4375 -10.839844 L 29.632812 -11.621094 L 29.671875 -12.4375 L 29.828125 -13.570312 L 29.710938 -15.519531 L 29.4375 -17.117188 L 28.464844 -20.042969 L 27.722656 -21.484375 L 26.867188 -22.65625 L 25.773438 -23.863281 L 24.644531 -24.839844 L 23.746094 -25.460938 L 22.578125 -25.96875 L 21.992188 -26.398438 L 18.988281 -27.332031 L 16.726562 -27.722656 L 15.675781 -27.761719 L 11.542969 -27.179688 L 8.617188 -26.085938 L 8.03125 -25.65625 L 7.332031 -25.304688 L 6.003906 -24.332031 L 4.09375 -22.109375 L 2.886719 -20.042969 L 2.300781 -18.558594 L 1.636719 -15.558594 L 1.519531 -12.398438 L 1.636719 -11.582031 L 1.832031 -10.878906 L 1.910156 -10.136719 L 2.261719 -8.65625 L 4.054688 -5.109375 L 4.523438 -4.640625 L 5.03125 -4.015625 L 5.613281 -3.46875 L 6.042969 -2.964844 L 7.332031 -1.949219 L 10.371094 -0.390625 L 11.503906 0 L 12.359375 0.078125 L 13.765625 0.390625 Z M 16.765625 -6.433594 L 14.621094 -6.433594 L 13.765625 -6.550781 L 12.359375 -7.136719 L 11.738281 -7.488281 L 10.683594 -8.34375 L 10.175781 -8.890625 L 9.632812 -9.632812 L 9.4375 -10.253906 L 9.085938 -10.957031 L 8.773438 -12.398438 L 8.773438 -14.777344 L 8.96875 -15.480469 L 9.085938 -16.222656 L 9.398438 -16.921875 L 9.632812 -17.625 L 10.566406 -18.871094 L 12.515625 -20.199219 L 13.023438 -20.394531 L 14.542969 -20.78125 L 15.636719 -20.859375 L 17.507812 -20.628906 L 18.210938 -20.472656 L 18.910156 -20.160156 L 20.121094 -19.300781 L 21.640625 -17.703125 L 22.109375 -16.222656 L 22.460938 -15.480469 L 22.578125 -14.777344 L 22.5 -12.398438 L 22.1875 -10.957031 L 21.914062 -10.253906 L 21.484375 -9.554688 L 21.25 -8.96875 L 20.703125 -8.34375 L 18.832031 -7.058594 L 18.132812 -6.863281 L 17.546875 -6.589844 Z M 16.765625 -6.433594 "/></g></g></g><g fill="#ffde59" fill-opacity="1"><g transform="translate(203.800865, 183.749988)"><g><path d="M 10.996094 -0.703125 L 11.621094 0 L 12.554688 0.351562 L 13.335938 0.429688 L 14.386719 -0.0390625 L 15.050781 -0.664062 L 15.285156 -1.402344 L 15.949219 -2.925781 L 16.300781 -3.664062 L 16.6875 -4.328125 L 17.3125 -5.730469 L 17.546875 -6.433594 L 19.886719 -11.425781 L 20.355469 -12.945312 L 21.171875 -14.347656 L 21.601562 -15.832031 L 22.03125 -16.609375 L 22.226562 -17.273438 L 22.421875 -18.015625 L 22.964844 -18.714844 L 23.160156 -19.457031 L 23.667969 -20.042969 L 24.253906 -21.5625 L 24.449219 -22.265625 L 24.878906 -22.925781 L 25.148438 -23.707031 L 25.539062 -24.449219 L 25.695312 -25.109375 L 26.085938 -26.046875 L 25.851562 -27.023438 L 25.1875 -27.253906 L 20.589844 -27.253906 L 19.691406 -26.945312 L 18.988281 -26.203125 L 18.792969 -25.5 L 14.152344 -14.078125 L 13.765625 -13.335938 L 13.570312 -12.632812 L 13.101562 -11.933594 L 12.632812 -11.855469 L 12.320312 -12.554688 L 11.816406 -14.039062 L 11.503906 -14.738281 L 11.269531 -15.519531 L 10.996094 -16.144531 L 10.566406 -16.84375 L 10.097656 -18.40625 L 9.75 -19.027344 L 9.476562 -19.730469 L 9.320312 -20.511719 L 7.953125 -23.316406 L 7.835938 -24.058594 L 7.449219 -24.800781 L 7.175781 -25.5 L 6.824219 -26.125 L 6.160156 -26.90625 L 5.265625 -27.214844 L 3.082031 -27.332031 L 2.417969 -27.253906 L 1.714844 -27.332031 L 0.898438 -27.292969 L 0.078125 -26.945312 L 0 -26.085938 L 0.15625 -25.148438 L 0.507812 -24.449219 L 1.089844 -22.964844 L 1.441406 -22.265625 L 1.675781 -21.5625 L 2.105469 -20.820312 L 2.730469 -19.300781 L 3.121094 -18.597656 L 4.289062 -15.753906 L 4.679688 -15.128906 L 7.253906 -9.320312 L 7.449219 -8.65625 L 8.109375 -7.253906 L 8.34375 -6.511719 L 9.359375 -4.25 L 9.75 -3.664062 L 9.941406 -2.847656 Z M 10.996094 -0.703125 "/></g></g></g><g fill="#ffde59" fill-opacity="1"><g transform="translate(229.103939, 183.749988)"><g><path d="M 1.871094 -1.128906 L 2.261719 -0.3125 L 3.042969 -0.0390625 L 14.621094 0.0390625 L 15.363281 -0.351562 L 15.792969 -1.054688 L 15.792969 -1.910156 L 15.714844 -2.613281 L 15.832031 -4.992188 L 15.285156 -5.652344 L 12.671875 -6.472656 L 12.242188 -7.253906 L 12.320312 -10.449219 L 12.164062 -12.007812 L 12.320312 -13.648438 L 12.242188 -14.816406 L 12.320312 -16.027344 L 12.242188 -16.765625 L 12.320312 -17.546875 L 12.242188 -18.367188 L 12.242188 -20.003906 L 12.671875 -20.703125 L 13.414062 -21.132812 L 14.269531 -21.171875 L 15.011719 -21.601562 L 15.441406 -22.34375 L 15.441406 -24.644531 L 15.519531 -25.34375 L 15.441406 -26.125 L 15.128906 -26.90625 L 13.882812 -27.253906 L 8.929688 -27.292969 L 8.070312 -27.214844 L 5.691406 -27.253906 L 4.953125 -27.214844 L 3.429688 -27.292969 L 2.574219 -26.90625 L 2.144531 -26.085938 L 2.144531 -25.34375 L 2.066406 -24.683594 L 2.066406 -23.824219 L 2.144531 -23.042969 L 2.144531 -22.304688 L 2.535156 -21.5625 L 4.914062 -20.742188 L 5.421875 -20.042969 L 5.304688 -16.726562 L 5.34375 -16.066406 L 5.457031 -15.167969 L 5.421875 -13.570312 L 5.34375 -12.789062 L 5.496094 -11.269531 L 5.304688 -10.488281 L 5.457031 -8.8125 L 5.382812 -7.292969 L 4.992188 -6.433594 L 2.417969 -5.613281 L 1.949219 -4.875 L 1.871094 -4.132812 Z M 1.871094 -1.128906 "/></g></g></g><g fill="#ffde59" fill-opacity="1"><g transform="translate(245.829592, 183.749988)"><g><path d="M 2.808594 -1.128906 L 3.3125 -0.390625 L 4.054688 0.0390625 L 12.867188 -0.0390625 L 13.570312 0.078125 L 15.949219 -0.0390625 L 18.328125 0.117188 L 19.066406 0.0390625 L 19.886719 -0.351562 L 20.238281 -1.089844 L 20.316406 -1.832031 L 20.277344 -4.25 L 20.355469 -4.992188 L 19.847656 -5.769531 L 18.675781 -6.160156 L 13.53125 -6.238281 L 12.789062 -6.121094 L 11.933594 -6.199219 L 11.074219 -6.121094 L 10.253906 -6.589844 L 9.902344 -7.796875 L 9.941406 -9.710938 L 10.292969 -10.527344 L 10.996094 -10.957031 L 12.515625 -10.957031 L 13.296875 -11.035156 L 15.363281 -10.917969 L 16.414062 -10.996094 L 17.234375 -10.917969 L 17.9375 -10.957031 L 18.714844 -11.386719 L 19.105469 -12.125 L 19.183594 -15.207031 L 19.105469 -15.988281 L 18.753906 -16.726562 L 18.09375 -17.15625 L 16.53125 -17.195312 L 15.753906 -17.117188 L 14.933594 -17.117188 L 14.039062 -17.195312 L 10.957031 -17.15625 L 10.292969 -17.585938 L 9.824219 -18.289062 L 9.75 -19.496094 L 10.136719 -20.628906 L 11.347656 -20.976562 L 18.832031 -21.015625 L 19.652344 -21.445312 L 20.082031 -22.148438 L 20.003906 -23.746094 L 19.886719 -24.488281 L 19.925781 -25.34375 L 20.042969 -26.085938 L 19.652344 -26.867188 L 18.832031 -27.214844 L 15.714844 -27.253906 L 15.011719 -27.179688 L 14.230469 -27.292969 L 12.515625 -27.214844 L 11.738281 -27.292969 L 10.214844 -27.253906 L 9.515625 -27.332031 L 4.40625 -27.214844 L 3.273438 -26.945312 L 2.886719 -26.085938 L 2.964844 -24.527344 L 2.808594 -23.394531 L 2.964844 -21.40625 L 2.886719 -20.589844 L 2.964844 -19.886719 L 2.964844 -12.90625 L 2.847656 -12.085938 L 2.964844 -10.566406 L 2.886719 -9.007812 L 3.003906 -8.1875 L 2.925781 -7.332031 L 2.964844 -6.589844 L 2.847656 -5.886719 L 2.925781 -4.992188 L 2.925781 -4.210938 L 3.003906 -2.691406 L 2.964844 -1.910156 Z M 2.808594 -1.128906 "/></g></g></g><g fill="#ffde59" fill-opacity="1"><g transform="translate(141.888144, 218.249986)"><g><path d="M 2.847656 -1.089844 L 3.238281 -0.351562 L 4.445312 0.078125 L 8.734375 0.0390625 L 9.515625 -0.351562 L 10.019531 -1.558594 L 9.980469 -2.769531 L 10.058594 -3.585938 L 9.941406 -5.265625 L 9.980469 -6.003906 L 9.941406 -6.746094 L 10.019531 -7.566406 L 10.371094 -8.382812 L 11.542969 -8.773438 L 17.625 -8.8125 L 18.367188 -9.164062 L 18.792969 -9.941406 L 18.753906 -10.800781 L 18.832031 -13.140625 L 18.714844 -13.882812 L 18.328125 -14.699219 L 17.15625 -15.089844 L 11.230469 -15.089844 L 10.332031 -15.402344 L 9.902344 -16.105469 L 9.902344 -18.40625 L 10.019531 -19.222656 L 9.980469 -19.886719 L 10.371094 -20.667969 L 11.503906 -21.054688 L 12.632812 -21.015625 L 13.765625 -21.09375 L 15.675781 -20.976562 L 16.453125 -21.054688 L 18.054688 -20.976562 L 18.832031 -21.09375 L 19.574219 -21.445312 L 19.847656 -22.226562 L 19.847656 -22.964844 L 19.925781 -23.746094 L 19.847656 -24.488281 L 19.925781 -25.304688 L 19.847656 -26.125 L 19.457031 -26.867188 L 18.753906 -27.214844 L 17.820312 -27.332031 L 16.414062 -27.214844 L 15.597656 -27.253906 L 14.777344 -27.214844 L 14.039062 -27.292969 L 13.296875 -27.214844 L 3.976562 -27.214844 L 3.238281 -26.828125 L 2.808594 -26.085938 L 2.964844 -21.40625 L 2.886719 -20.667969 L 2.847656 -15.128906 L 2.964844 -14.425781 L 2.886719 -13.6875 L 2.886719 -12.90625 L 2.808594 -12.046875 L 2.964844 -10.839844 L 2.847656 -2.769531 L 2.925781 -1.871094 Z M 2.847656 -1.089844 "/></g></g></g><g fill="#ffde59" fill-opacity="1"><g transform="translate(162.161733, 218.249986)"><g><path d="M 1.871094 -1.128906 L 2.261719 -0.3125 L 3.042969 -0.0390625 L 14.621094 0.0390625 L 15.363281 -0.351562 L 15.792969 -1.054688 L 15.792969 -1.910156 L 15.714844 -2.613281 L 15.832031 -4.992188 L 15.285156 -5.652344 L 12.671875 -6.472656 L 12.242188 -7.253906 L 12.320312 -10.449219 L 12.164062 -12.007812 L 12.320312 -13.648438 L 12.242188 -14.816406 L 12.320312 -16.027344 L 12.242188 -16.765625 L 12.320312 -17.546875 L 12.242188 -18.367188 L 12.242188 -20.003906 L 12.671875 -20.703125 L 13.414062 -21.132812 L 14.269531 -21.171875 L 15.011719 -21.601562 L 15.441406 -22.34375 L 15.441406 -24.644531 L 15.519531 -25.34375 L 15.441406 -26.125 L 15.128906 -26.90625 L 13.882812 -27.253906 L 8.929688 -27.292969 L 8.070312 -27.214844 L 5.691406 -27.253906 L 4.953125 -27.214844 L 3.429688 -27.292969 L 2.574219 -26.90625 L 2.144531 -26.085938 L 2.144531 -25.34375 L 2.066406 -24.683594 L 2.066406 -23.824219 L 2.144531 -23.042969 L 2.144531 -22.304688 L 2.535156 -21.5625 L 4.914062 -20.742188 L 5.421875 -20.042969 L 5.304688 -16.726562 L 5.34375 -16.066406 L 5.457031 -15.167969 L 5.421875 -13.570312 L 5.34375 -12.789062 L 5.496094 -11.269531 L 5.304688 -10.488281 L 5.457031 -8.8125 L 5.382812 -7.292969 L 4.992188 -6.433594 L 2.417969 -5.613281 L 1.949219 -4.875 L 1.871094 -4.132812 Z M 1.871094 -1.128906 "/></g></g></g></svg>